<svg xmlns="http://www.w3.org/2000/svg" xmlns:xlink="http://www.w3.org/1999/xlink" width="93.29" height="91.365" viewBox="0 0 93.29 91.365"><defs><style>.a{fill:#fff;}.b{clip-path:url(#a);}</style><clipPath id="a"><rect class="a" width="93.29" height="91.365"/></clipPath></defs><g class="b"><path class="a" d="M.3,82.407v-1.84a1.648,1.648,0,0,1,1.648-1.648H15.27c1.867,0,2.91-1.043,2.91-2.608,0-1.7-1.043-2.581-2.91-2.581H6.1c-3.762,0-6.1-2.39-6.1-5.685,0-3.213,2.17-5.6,6.152-5.6H20.488v1.687a1.8,1.8,0,0,1-1.8,1.8H6.152a2.432,2.432,0,1,0-.027,4.862H15.27c4.037,0,6.207,1.894,6.207,5.767,0,3.35-2.033,5.849-6.207,5.849Z" transform="translate(0 8.684)"/><path class="a" d="M44.544,81.248,41.049,68.4,35.392,81.393a1.868,1.868,0,0,1-3.57,0L26.192,68.4,22.725,81.151a1.744,1.744,0,0,1-1.681,1.286h-2.1l5.136-18.785a1.644,1.644,0,0,1,1.73-1.427,1.883,1.883,0,0,1,1.758,1.18l6.151,14.116L39.869,63.4a1.776,1.776,0,0,1,1.674-1.18,1.664,1.664,0,0,1,1.676,1.427l5.108,18.785H46.1a1.613,1.613,0,0,1-1.555-1.189" transform="translate(2.634 8.654)"/><path class="a" d="M63.214,82.407V62.441H74.777A9.359,9.359,0,0,1,84.5,72.219c0,5.794-4.093,10.188-9.722,10.188Zm11.563-3.488a6.2,6.2,0,0,0,6.234-6.536,6.134,6.134,0,0,0-6.234-6.454h-8.1v12.99Z" transform="translate(8.791 8.684)"/><path class="a" d="M46.364,82.407V62.441H64.187v1.873a1.615,1.615,0,0,1-1.615,1.615H49.823v12.99H62.382a1.832,1.832,0,0,1,1.833,1.833v1.655Z" transform="translate(6.448 8.684)"/><path class="a" d="M53.458,69.84a2.042,2.042,0,1,0,0,2.939h7.831a1.651,1.651,0,0,0,1.652-1.651V69.84Z" transform="translate(6.953 9.633)"/><path class="a" d="M62.87,14.156a5.919,5.919,0,0,0-6.814-.769,23.382,23.382,0,0,0-4.332,2.85L32.051,31.924q-.574.458-.918.7a1.155,1.155,0,0,1-.606.249.705.705,0,0,1-.5-.206,5.618,5.618,0,0,1-.6-.664,5.317,5.317,0,0,1-.482-.688.7.7,0,0,1-.089-.533,1.327,1.327,0,0,1,.361-.556,10.078,10.078,0,0,1,.869-.76l20.7-16.5a2.88,2.88,0,0,0,.457-4.047L49.121,6.246,24.53,25.853a17.255,17.255,0,0,0-2.353,2.178,3.311,3.311,0,0,0-.436,4.036,17.433,17.433,0,0,0,1.793,2.626l1.96,2.459a17.255,17.255,0,0,0,2.178,2.353,3.319,3.319,0,0,0,4.014.453,17.323,17.323,0,0,0,2.648-1.809L55.646,21.156a15.077,15.077,0,0,1,1.8-1.27,1.981,1.981,0,0,1,2.615.3,14.886,14.886,0,0,1,1.475,1.64L63.5,24.28a14.906,14.906,0,0,1,1.27,1.8,1.98,1.98,0,0,1-.3,2.615,14.744,14.744,0,0,1-1.639,1.476L36.273,51.351a1.674,1.674,0,0,1-2.352-.264l-.264-.331L61.528,28.534a2.1,2.1,0,0,0,.333-2.947L59.9,23.128a2.1,2.1,0,0,0-2.947-.331L35.64,39.789a20.994,20.994,0,0,1-3.491,2.348,4.541,4.541,0,0,1-5.414-.611,20.943,20.943,0,0,1-2.881-3.066L21.893,36a21.019,21.019,0,0,1-2.348-3.491,4.541,4.541,0,0,1,.611-5.414,21.124,21.124,0,0,1,3.066-2.881L44.177,7.505l.022,0,4.344-3.464a1.97,1.97,0,0,0,2.047-.292,2.027,2.027,0,0,0,.793-1.4,2.032,2.032,0,0,0-.46-1.545A2.06,2.06,0,0,0,47.976.474a1.972,1.972,0,0,0-.742,1.912L21.916,22.574a23.626,23.626,0,0,0-3.763,3.605,6.506,6.506,0,0,0-1.492,3.3,6.341,6.341,0,0,0,.723,3.514,24.693,24.693,0,0,0,2.87,4.315l1.96,2.459A24.986,24.986,0,0,0,25.8,43.547a6.347,6.347,0,0,0,3.279,1.508,6.343,6.343,0,0,0,3.535-.74,24.95,24.95,0,0,0,4.335-2.886L56.621,25.742a4.388,4.388,0,0,1,1.442-.882q.46-.1,1.178.8.687.861.588,1.242t-1.247,1.3L30.711,50.423,33,53.3a2.616,2.616,0,0,0,3.675.415l27.465-21.9a17.457,17.457,0,0,0,2.333-2.162,3.312,3.312,0,0,0,.474-4.031,17.322,17.322,0,0,0-1.809-2.647l-1.961-2.459a17.365,17.365,0,0,0-2.161-2.332,3.3,3.3,0,0,0-4.052-.458,17.437,17.437,0,0,0-2.628,1.793L33.026,36.509a14.69,14.69,0,0,1-1.8,1.27,1.982,1.982,0,0,1-2.615-.294,14.9,14.9,0,0,1-1.475-1.64l-1.96-2.459a14.856,14.856,0,0,1-1.27-1.8,1.981,1.981,0,0,1,.3-2.615,14.9,14.9,0,0,1,1.64-1.475l22.951-18.3.2.253a1.773,1.773,0,0,1-.281,2.491l-21.566,17.2a2.1,2.1,0,0,0-.333,2.946l1.961,2.459a2.1,2.1,0,0,0,2.946.333L53.031,17.878a21.155,21.155,0,0,1,3.491-2.349,4.541,4.541,0,0,1,5.415.612,21.167,21.167,0,0,1,2.881,3.065l1.96,2.459a21.116,21.116,0,0,1,2.348,3.492,4.968,4.968,0,0,1,.6,2.808,4.976,4.976,0,0,1-1.207,2.606,21.061,21.061,0,0,1-3.066,2.881l-27.3,21.764a1.973,1.973,0,0,0-2.047.292,2.1,2.1,0,1,0,2.614,3.278,1.977,1.977,0,0,0,.74-1.931l27.3-21.764a24.567,24.567,0,0,0,3.759-3.568A6.329,6.329,0,0,0,72,28.26a6.518,6.518,0,0,0-.72-3.55,23.65,23.65,0,0,0-2.866-4.351L66.458,17.9a23.328,23.328,0,0,0-3.588-3.743" transform="translate(2.312 0)"/></g></svg>